<?xml version="1.0" encoding="UTF-8"?>
<svg width="620px" height="739px" viewBox="0 0 620 739" version="1.1" xmlns="http://www.w3.org/2000/svg" xmlns:xlink="http://www.w3.org/1999/xlink">
    <!-- Generator: Sketch 57.1 (83088) - https://sketch.com -->
    <title>Group 2</title>
    <desc>Created with Sketch.</desc>
    <g id="Page-1" stroke="none" stroke-width="1" fill="none" fill-rule="evenodd">
        <g id="Desktop" transform="translate(-256.000000, -372.000000)" fill="#000000" fill-rule="nonzero">
            <g id="Group-2" transform="translate(256.000000, 372.000000)">
                <g id="Group">
                    <path d="M128.136894,691.788252 C128.136894,681.982631 127.738214,676.575995 127.167243,673.385732 C126.494216,669.857032 123.898026,667.881036 118.55563,667.499232 L118.55563,665.264924 L142.38639,665.264924 L142.38639,667.499232 C135.981379,667.980035 133.322,669.874022 132.649882,673.545065 C132.079139,676.575995 131.765696,681.982631 131.7266,691.788252 L131.7266,718.662029 L131.921849,718.662029 L172.631254,664.550324 L175.391552,664.550324 L175.391552,706.254589 C175.391552,715.763018 175.704086,721.029363 176.314152,724.200609 C177.010135,727.830166 179.442899,729.698885 184.612322,730.062588 L184.612322,732.304422 L160.844523,732.304422 L160.844523,730.062588 C167.531155,729.64796 170.174397,727.803858 170.847424,724.033842 C171.402256,721.029363 171.809801,715.755537 171.809801,706.254589 L171.809801,679.788873 L171.574548,679.788873 L131.319965,732.304422 L117.586207,732.304422 L117.586207,730.062588 C122.13829,729.589314 124.343756,728.561917 126.15077,726.210513 C127.918461,723.843422 128.136894,722.947799 128.136894,715.065537 L128.136894,691.788252 Z M205.987135,711.510315 C201.224575,711.510315 195.874904,708.587892 191.979937,704.039061 C187.646968,699.031194 185.472643,692.495145 185.472643,685.752675 C185.472643,674.126726 192.636827,664.043128 204.61085,664.043128 C207.379332,664.043128 214.285305,666.111512 219.956145,673.943837 L218.500761,675.835941 C214.793996,672.041378 211.516824,670.63669 207.762782,670.63669 C200.825895,670.562211 192.746157,676.127242 192.739111,691.090529 C204.791096,691.506362 216.890132,692.519762 218.391659,692.826026 C220.182534,693.243791 220.558029,693.924378 220.565993,696.149319 C220.574168,703.946626 214.175976,711.510315 206.081236,711.510315 L205.987135,711.510315 Z M203.539143,708.016633 C209.444554,708.016633 212.75264,702.742809 212.697634,697.337209 C212.697634,695.867431 212.197807,695.217734 210.477167,695.210253 C204.861331,695.094408 199.057975,694.935122 193.333039,694.952016 C194.451795,703.448011 199.12821,708.016633 203.445042,708.016633 L203.539143,708.016633 Z M242.151956,664.243932 C246.02283,675.896276 249.941436,686.647357 253.882772,697.402129 C257.87184,685.827152 261.829086,675.389071 265.490846,664.251474 L268.118402,664.251474 C272.568884,678.144725 277.167109,692.618713 280.146977,700.484079 C282.249476,705.998041 283.00183,707.185931 287.654607,708.074074 L287.654607,710.309392 L270.291365,710.309392 L270.291365,708.074074 C276.52613,707.043538 277.212569,706.562783 275.978344,701.371979 C274.19406,693.598324 271.277835,684.347987 268.970767,676.757002 L268.775291,676.757002 C264.629388,687.93608 260.774426,698.980271 257.230862,709.792676 L254.891972,709.792676 C250.723338,697.860439 246.836554,686.657711 243.427094,676.757002 L243.231619,676.757002 C240.619973,685.004149 238.069697,693.689552 235.87855,701.712516 C234.689785,706.097233 235.096648,707.060674 240.979102,708.074074 L240.979102,710.309392 L221.434487,710.309392 L221.434487,708.074074 C226.095674,707.352941 226.68892,706.362951 228.575488,700.609336 C232.366808,689.007981 236.044478,676.583525 239.531218,664.251474 L242.151956,664.243932 Z M321.949227,677.879802 C321.949227,669.476168 321.190053,668.088447 312.275452,667.499232 L312.275452,665.264924 L339.751152,665.264924 L339.751152,667.499232 C330.475149,668.088447 329.700065,669.476168 329.700065,677.879802 L329.700065,692.93463 C329.738706,695.00294 329.879629,695.999445 331.507079,699.20472 C335.925739,707.975123 339.523856,714.667562 343.231074,720.689069 C347.211051,727.099621 348.322535,729.24902 354.69595,730.062588 L354.69595,732.304422 L333.109525,732.304422 L333.109525,730.062588 C340.689891,729.283049 341.510434,728.130155 339.530675,723.288092 C336.857658,716.776658 331.484349,706.097233 327.893051,699.520638 C323.70169,706.961723 318.828434,716.245704 314.934831,724.092246 C313.064175,727.803858 313.371026,729.083217 320.401332,730.062588 L320.401332,732.304422 L297.719333,732.304422 L297.719333,730.062588 C302.881255,729.514981 303.992737,728.229106 307.677228,721.485501 C313.034625,711.629056 316.671383,704.501956 319.846726,698.391153 C321.667377,694.744703 321.949227,693.781985 321.949227,691.938126 L321.949227,677.879802 Z M364.747038,708.372855 C373.991221,708.372855 378.518984,698.217628 378.518984,686.416367 C378.518984,671.858489 373.561629,667.200377 367.060926,667.200377 C358.332709,667.200377 353.109416,676.889934 353.109416,690.376877 C353.109416,701.678486 357.950849,708.372855 364.651573,708.372855 L364.747038,708.372855 Z M365.785788,711.537828 C356.839365,711.537828 344.381199,703.821369 344.381199,686.657711 C344.381199,675.330618 352.475257,664.028986 365.833521,664.028986 C375.65731,664.028986 387.051725,672.316654 387.051725,688.566805 C387.051725,701.280752 378.128031,711.537828 365.881253,711.537828 L365.785788,711.537828 Z M397.836982,675.81142 C397.836982,669.183926 397.000529,668.088447 391.018064,667.499232 L391.018064,665.264924 L413.495495,665.264924 L413.495495,667.499232 C405.8924,668.088447 405.094586,669.193339 405.094586,675.868934 L405.094586,694.571176 C407.372105,700.891224 410.397432,703.896668 412.736321,703.896668 C414.409231,703.896668 415.607086,703.174571 417.007239,701.746302 C417.530022,701.14029 418.40739,701.014792 419.493871,701.538989 C421.371346,702.459954 422.535109,704.478547 422.535109,706.39698 C422.535109,708.69722 420.314413,711.537828 417.132252,711.537828 C412.563576,711.537828 407.847156,705.467327 405.299154,700.235254 L405.094586,700.235254 L405.094586,711.836609 C400.544093,709.693726 396.148164,708.414367 391.572668,707.583906 L391.572668,705.624925 C397.298287,704.784811 397.836982,704.379355 397.836982,697.436159 L397.836982,675.81142 Z M429.542686,675.777489 C429.542686,669.177314 428.660771,668.088447 422.262352,667.499232 L422.262352,665.264924 L443.823776,665.264924 L443.823776,667.499232 C437.639016,668.088447 436.80938,669.177314 436.80938,675.777489 L436.80938,687.53825 C437.450359,687.762603 438.020876,687.852165 438.530022,687.837082 C439.555133,687.827669 440.539329,687.26295 441.884929,685.494365 C447.251419,678.567074 453.381628,670.421749 458.136689,665.081092 L470.344828,665.264924 L470.344828,667.499232 C466.819446,667.782062 465.214726,669.32627 461.609791,672.946415 C457.957123,676.583525 448.219705,688.841212 446.053563,692.335859 C450.347208,697.792381 452.217867,699.942989 454.734048,702.47709 C458.450359,706.196184 460.436937,707.451891 466.778533,708.730285 L466.778533,710.888131 L447.501446,709.975614 L447.501446,707.724368 C451.763271,707.308533 452.131493,706.39698 450.231287,703.25011 C448.478824,700.269043 445.083002,695.782477 443.041873,693.699929 C441.634903,692.213257 440.125649,690.94162 436.80938,690.15436 L436.80938,739 C433.290818,737.680095 427.603839,735.944357 422.855598,735.387337 L422.855598,733.335922 C428.96535,732.638199 429.542686,732.03967 429.542686,725.264932 L429.542686,675.777489 Z" id="ny" transform="translate(293.965517, 701.514493) scale(-1, 1) rotate(-180.000000) translate(-293.965517, -701.514493) "></path>
                    <g id="fotografiska" transform="translate(0.000000, 515.086957)">
                        <path d="M12.3274569,83.8994747 C12.3274569,94.9796483 11.1861813,97.5674601 1.42108547e-14,98.3520794 L1.42108547e-14,100.380951 L60.5942122,100.380951 C60.6188989,95.6437118 61.3187345,86.5275463 61.9017044,79.155302 L59.5591803,78.7325739 C57.9993848,85.8766791 56.3007548,89.5584399 54.1570836,92.0476151 C51.8736718,94.9622024 48.4499129,96.9454458 37.1080465,96.9454458 L27.7771318,96.9454458 C23.7844451,96.9454458 23.4429071,96.6327612 23.4429071,92.6539726 L23.4429071,57.359306 L37.7272538,57.359306 C50.6350307,57.359306 52.1037795,58.8173825 54.0846086,68.4193499 L56.3908953,68.4193499 L56.3908953,40.7476566 L54.0846086,40.7476566 C52.1037795,51.6374908 50.6350307,53.0940016 37.7272538,53.0940016 L23.4429071,53.0940016 L23.4429071,25.2693212 C23.4429071,14.1848978 24.5911811,11.6013356 37.999714,10.8254394 L37.999714,8.82810493 L1.42108547e-14,8.82810493 L1.42108547e-14,10.8254394 C11.1861813,11.6013356 12.3274569,14.1848978 12.3274569,25.2693212 L12.3274569,83.8994747" id="path14" transform="translate(30.950852, 54.604528) scale(-1, 1) rotate(-180.000000) translate(-30.950852, -54.604528) "></path>
                        <path d="M92.6204105,98.9358474 C82.8109349,98.9358474 75.7561844,89.0299186 75.7561844,73.5943032 C75.7561844,55.0327364 83.3320747,41.3645272 96.0079319,41.3645272 C105.427402,41.3645272 112.780205,48.235313 112.780205,68.5486293 C112.780205,84.3329395 106.151924,98.9358474 92.7646808,98.9358474 L92.6204105,98.9358474 Z M94.3792853,102.074101 C112.33607,102.074101 124.841385,88.1929617 124.841385,71.2860736 C124.841385,49.3623643 108.596366,38.2262743 94.297751,38.2262743 C74.9707379,38.2262743 63.4085026,53.3411531 63.4085026,68.8194885 C63.4085026,91.6649239 81.5926774,102.074101 94.235015,102.074101 L94.3792853,102.074101 Z" id="path16" transform="translate(94.124944, 70.150187) scale(-1, 1) rotate(-180.000000) translate(-94.124944, -70.150187) "></path>
                        <path d="M136.58141,78.6992457 L127.166243,78.6992457 L126.561305,80.1215358 L130.507789,83.7317235 L136.58141,83.7317235 L136.58141,91.89977 L145.171722,102.074098 L146.819167,101.622293 L146.819167,83.7317235 L162.828642,83.7317235 C164.024025,82.1790364 163.597556,79.9206841 161.723853,78.6992457 L146.819167,78.6992457 L146.819167,42.382427 C146.819167,30.5970355 151.644409,28.2756095 155.375054,28.2756095 C159.09528,28.2756095 161.994502,29.4368816 164.12934,30.4187739 L165.05113,28.2686758 L154.543404,22.9722728 C152.601531,21.883692 151.094053,21.5770463 149.984508,21.5770463 C141.022535,21.5770463 136.58141,27.2832049 136.58141,37.9876202 L136.58141,78.6992457" id="path18" transform="translate(145.806217, 61.825572) scale(-1, 1) rotate(-180.000000) translate(-145.806217, -61.825572) "></path>
                        <path d="M193.198789,98.9358474 C183.389314,98.9358474 176.334564,89.0299186 176.334564,73.5943032 C176.334564,55.0327364 183.911133,41.3645272 196.586311,41.3645272 C206.006687,41.3645272 213.358585,48.235313 213.358585,68.5486293 C213.358585,84.3329395 206.730303,98.9358474 193.343059,98.9358474 L193.198789,98.9358474 Z M194.957665,102.074101 C212.915355,102.074101 225.419765,88.1929617 225.419765,71.2860736 C225.419765,49.3623643 209.174746,38.2262743 194.877036,38.2262743 C175.548891,38.2262743 163.987788,53.3411531 163.987788,68.8194885 C163.987788,91.6649239 182.171057,102.074101 194.8143,102.074101 L194.957665,102.074101 Z" id="path20" transform="translate(194.703776, 70.150187) scale(-1, 1) rotate(-180.000000) translate(-194.703776, -70.150187) "></path>
                        <path d="M255.406021,133.75321 C249.469876,133.75321 243.81004,127.96944 243.81004,117.025478 C243.81004,104.960728 249.046349,96.6920322 257.578003,96.6920322 C263.400907,96.6920322 269.207956,101.675527 269.207956,113.529808 C269.207956,125.269795 264.19813,133.75321 255.546441,133.75321 L255.406021,133.75321 Z M257.131829,74.1603997 C251.601089,74.1603997 247.975081,73.2945899 245.078349,71.4562817 C241.345893,68.9758294 238.963281,65.0835994 238.963281,60.3061007 C238.963281,50.9166158 247.463226,43.7749708 259.124889,43.7749708 C273.454531,43.7749708 279.716815,51.4601234 279.716815,61.2383392 C279.716815,66.4367767 276.849527,70.3527154 272.559921,72.1377911 C268.625893,73.8808176 264.021473,74.1603997 257.272249,74.1603997 L257.131829,74.1603997 Z M257.281308,136.643418 C261.745308,136.643418 266.154952,135.256915 270.066332,132.872638 C277.451976,133.388859 283.451535,134.223356 289.138549,135.046221 L289.851974,134.024069 C288.508925,131.896562 285.788851,128.918229 283.630459,127.526358 L275.717107,127.86633 C278.482477,125.005869 280.133545,120.684649 280.133545,116.427844 C280.133545,101.158412 266.691719,93.800035 255.646095,93.800035 C254.823958,93.800035 253.21139,93.800035 250.421108,94.0570268 C248.022643,93.1737711 244.28339,90.6861615 244.28339,88.2155504 C244.28339,85.2090365 247.764451,82.6010948 253.965582,82.6010948 C258.160067,82.6010948 263.468852,82.9969831 268.573801,82.9969831 C276.441856,82.9969831 288.173727,80.4176705 288.173727,66.54436 C288.173727,52.6945342 272.093363,38.2262729 253.340486,38.2262729 C237.427721,38.2262729 229.072725,47.0809732 228.717146,55.5646121 C228.599373,59.4673545 229.974132,62.3638249 232.069108,64.6432018 C234.367921,67.1612299 240.532815,71.5969675 244.552907,74.4399817 C239.579318,75.6719323 235.489017,79.1946667 233.813036,82.1738933 C232.626259,84.2987173 232.32277,86.235662 232.463191,87.5707223 C238.175116,89.2482149 244.063702,92.7664759 246.376103,95.1867622 C238.292889,97.8819335 232.232177,104.964978 232.232177,113.57879 C232.232177,129.398663 246.183592,136.643418 257.136359,136.643418 L257.281308,136.643418 Z" id="path22" transform="translate(259.281051, 87.434845) scale(-1, 1) rotate(-180.000000) translate(-259.281051, -87.434845) "></path>
                        <path d="M300.351774,81.5990728 C300.351774,90.7675759 299.550021,91.6327149 291.543809,92.8094199 L291.543809,94.5244883 C297.887627,95.5423908 303.823774,97.2355399 310.588851,100.38095 L310.588851,84.8692886 L310.885545,84.8692886 C314.264686,90.9800584 321.050148,99.8662955 327.824285,99.8662955 C332.258841,99.8662955 335.357142,96.0438492 335.357142,93.089002 C335.357142,90.7807723 333.672101,88.1439777 331.015444,86.8822797 C329.425526,86.17818 328.256868,86.3546522 327.534385,87.0614359 C325.41223,89.0229838 323.661508,90.022322 321.172449,90.022322 C318.128504,90.022322 314.377929,87.3340843 310.588851,79.2664635 L310.588851,51.5229735 C310.588851,42.5964766 311.750714,40.473442 322.569855,39.7089528 L322.569855,37.7116184 L290.873418,37.7116184 L290.873418,39.7089528 C299.087993,40.473442 300.351774,42.5781361 300.351774,51.3912345 L300.351774,81.5990728" id="path24" transform="translate(313.115280, 69.046284) scale(-1, 1) rotate(-180.000000) translate(-313.115280, -69.046284) "></path>
                        <path d="M369.748739,73.4965614 C366.910896,71.8293574 359.871772,68.8642217 356.664759,67.3001276 C351.317471,64.7552596 348.232759,62.089612 348.232759,57.1034333 C348.232759,49.5345869 353.704612,45.768057 358.234293,45.768057 C361.853506,45.768057 366.367334,47.4954269 369.748739,51.0599868 L369.748739,73.4965614 Z M379.956373,54.1939901 C379.956373,48.6696717 382.046821,46.2896454 384.644593,46.2896454 C386.909434,46.2896454 388.750749,46.8400866 390.313489,47.6718991 L391.371168,45.531195 L378.441195,38.2262743 C377.098146,38.2262743 374.54114,39.3674164 372.971608,41.0194111 C371.379424,42.7127839 370.480283,44.8935242 369.803095,47.564316 C364.299534,43.6702966 356.850475,38.2262743 353.552868,38.2262743 C343.458475,38.2262743 336.915352,46.6206706 336.915352,54.4952678 C336.915352,61.2280518 340.49833,65.2741639 349.306293,68.3538165 C355.951334,70.6692035 365.853215,74.0843546 369.748739,76.9291584 L369.775917,80.9822039 C369.748739,91.4631774 365.683352,96.5269682 358.168612,96.5269682 C355.627461,96.5269682 353.410183,95.3885099 352.003718,93.9234997 C350.280174,92.1428974 348.785379,89.154724 347.800174,84.4105514 C347.347207,82.4648838 346.221581,81.3711586 343.850293,81.3711586 C341.381618,81.3711586 338.2199,83.5143231 338.2199,86.6369195 C338.2199,88.7617434 339.780375,90.4967181 342.312467,92.27486 C346.545453,95.1046781 356.100813,100.360821 363.488722,102.074101 C366.978841,102.074101 371.295626,100.79943 374.371277,98.380933 C379.220301,94.679266 379.956373,89.463159 379.956373,84.366042 L379.956373,54.1939901 Z" id="path26" transform="translate(364.143260, 70.150187) scale(-1, 1) rotate(-180.000000) translate(-364.143260, -70.150187) "></path>
                        <path d="M400.591332,55.7665837 L390.295369,55.7665837 L389.695187,57.2002806 L393.658657,60.7990613 L400.591332,60.7990613 L400.591332,64.2860091 C400.591332,69.7971313 401.322876,74.0223994 402.113305,76.5945547 C403.080391,79.3588387 405.540008,86.4400939 413.251788,92.7114556 C419.212847,97.4155921 424.877213,99.8150774 430.285651,100.380952 C438.244299,100.099133 442.767186,96.1040166 444.692299,93.4611829 C445.788481,92.0004224 445.82472,90.3430599 445.32872,89.2377042 C444.75798,88.209513 443.510053,86.8579013 442.187385,85.9614493 C440.556702,84.8990374 439.052847,84.9008268 437.854747,86.3501803 C434.776829,90.0878573 429.540518,94.6083643 423.554546,94.6083643 C419.991953,94.6083643 417.774675,92.9780651 415.634401,90.2529225 C412.683315,86.8218913 410.830675,77.3948305 410.830675,66.4938129 L410.830675,60.7990613 L420.594401,60.7990613 C431.719295,60.7990613 439.759477,61.0699205 447.267422,62.4922104 L447.267422,13.8362039 C447.267422,5.17967139 448.551587,3.07922707 457.126272,2.33486772 L457.126272,0.337533275 L427.518017,0.337533275 L427.518017,2.33486772 C435.786949,3.07922707 437.030346,5.17967139 437.030346,13.8362039 L437.030346,48.2248008 C437.030346,54.6657012 436.744976,55.7665837 429.87345,55.7665837 L410.830675,55.7665837 L410.830675,13.8109297 C410.830675,5.19353867 411.992538,3.09063402 420.578546,2.33486772 L420.578546,0.337533275 L390.474291,0.337533275 L390.474291,2.33486772 C399.361524,3.22953041 400.591332,5.20673495 400.591332,13.8109297 L400.591332,55.7665837" id="path28" transform="translate(423.410730, 50.359242) scale(-1, 1) rotate(-180.000000) translate(-423.410730, -50.359242) "></path>
                        <path d="M495.716883,84.0708033 C492.833742,92.2887274 487.357358,98.8038848 480.202728,98.8038848 C474.472683,98.8038848 470.649632,94.5927074 470.649632,89.065705 C470.649632,82.4447539 476.755642,78.7055112 482.888828,76.2136518 C493.486016,71.8320414 499.929485,66.5043251 499.929485,57.2868391 C499.929485,44.8331345 488.451276,38.2262743 477.360354,38.2262743 C470.022272,38.2262743 463.651276,40.9435885 461.449851,43.2316883 C460.725103,45.8065276 459.694601,53.9589176 459.234837,59.8887419 L461.11692,60.1725737 C463.913998,51.4068922 471.150162,41.49649 480.010217,41.49649 C485.742526,41.49649 490.337887,44.6996061 490.337887,52.0246569 C490.337887,59.1748011 485.930509,63.1160139 478.24817,66.4598157 C471.043714,69.653985 461.74881,74.316967 461.74881,83.8540712 C461.74881,93.8429801 470.296317,102.05151 482.931861,102.074101 C488.3788,102.074101 492.129376,100.957561 494.95816,99.7947236 C495.886746,96.4196087 497.333978,87.9071169 497.621613,84.6858839 L495.716883,84.0708033" id="path30" transform="translate(479.582161, 70.150187) scale(-1, 1) rotate(-180.000000) translate(-479.582161, -70.150187) "></path>
                        <path d="M509.738507,83.0622939 C509.738507,91.8098584 508.99564,93.1449187 500.713119,94.27197 L500.713119,95.8935462 C507.08638,96.5898173 514.791366,98.9067701 519.977849,100.805468 L519.977849,33.6742295 C524.675129,34.8196215 527.118891,36.6474174 529.191219,38.7049179 C532.300845,41.668488 536.708223,46.7725387 539.890325,51.710853 C543.471037,57.0971698 542.402032,58.0276189 535.521448,58.8032915 L535.521448,60.8033099 L562.758415,62.0692576 L562.758415,60.0710285 C553.862123,58.1839612 551.225849,56.6654949 545.536571,51.2677714 C541.631986,47.5153324 538.721667,44.5779311 532.756078,37.5192661 C536.017448,32.5297324 549.30753,16.1278813 554.881301,10.7800351 C561.240973,4.66926534 563.03699,3.31586436 567.655,2.75938416 L567.655,0.762049708 L550.430891,0.337532268 C543.967037,6.75651338 534.513593,18.7400727 527.479,27.8947087 C525.483677,30.5726578 524.276517,31.5091459 522.582417,31.5406828 C521.660626,31.5695356 520.809047,31.4514402 519.977849,31.1895277 L519.977849,14.3515286 C519.977849,5.60418783 521.042325,3.52387342 529.709869,2.75938416 L529.709869,0.762049708 L499.86154,0.762049708 L499.86154,2.75938416 C508.529084,3.52387342 509.736243,5.60418783 509.736243,14.3515286 L509.738507,83.0622939" id="path32" transform="translate(533.758270, 50.571500) scale(-1, 1) rotate(-180.000000) translate(-533.758270, -50.571500) "></path>
                        <path d="M598.275638,73.4965614 C595.435529,71.8293574 588.39867,68.8642217 585.191656,67.3001276 C579.846634,64.7552596 576.757392,62.089612 576.757392,57.1034333 C576.757392,49.5345869 582.229245,45.768057 586.758926,45.768057 C590.380405,45.768057 594.891967,47.4954269 598.275638,51.0599868 L598.275638,73.4965614 Z M608.483272,54.1939901 C608.483272,48.6696717 610.571454,46.2896454 613.169227,46.2896454 C615.434067,46.2896454 617.279912,46.8400866 618.840386,47.6718991 L619.895803,45.531195 L606.96583,38.2262743 C605.622779,38.2262743 603.065775,39.3674164 601.498505,41.0194111 C599.904059,42.7127839 599.007182,44.8935242 598.332259,47.564316 C592.826433,43.6702966 585.375108,38.2262743 582.079766,38.2262743 C571.987638,38.2262743 565.439986,46.6206706 565.439986,54.4952678 C565.439986,61.2280518 569.025227,65.2741639 577.83319,68.3538165 C584.475967,70.6692035 594.382378,74.0843546 598.275638,76.9291584 L598.300552,80.9822039 C598.275638,91.4631774 594.207985,96.5269682 586.695511,96.5269682 C584.15436,96.5269682 581.934816,95.3885099 580.528351,93.9234997 C578.804807,92.1428974 577.310014,89.154724 576.331603,84.4105514 C575.874104,82.4648838 574.74848,81.3711586 572.379456,81.3711586 C569.908515,81.3711586 566.746799,83.5143231 566.746799,86.6369195 C566.746799,88.7617434 568.309538,90.4967181 570.839364,92.27486 C575.070086,95.1046781 584.627711,100.360821 592.017885,102.074101 C595.503474,102.074101 599.822525,100.79943 602.895912,98.380933 C607.744934,94.679266 608.483272,89.463159 608.483272,84.366042 L608.483272,54.1939901 Z" id="path34" transform="translate(592.667895, 70.150187) scale(-1, 1) rotate(-180.000000) translate(-592.667895, -70.150187) "></path>
                    </g>
                    <g id="icon" transform="translate(53.448276, 0.000000)">
                        <path d="M362.440243,350.848901 C362.435722,350.864758 362.440243,350.896468 362.440243,350.925916 C362.435722,350.946302 362.4312,350.957627 362.4312,350.980279 L362.4312,374.721149 L429.330551,374.721149 L429.330551,402.373905 L362.4312,402.36711 L362.440243,424.9958 L452.051595,425.00486 L452.047075,452.827501 L332.143255,452.834297 L332.138733,364.591469 L332.138733,332.691587 L341.792351,332.691587 L341.792351,332.696116 L345.224247,332.700647 C354.796476,333.228424 362.392766,341.133742 362.440243,350.848901" id="path36" transform="translate(392.095164, 392.762942) scale(-1, 1) rotate(-180.000000) translate(-392.095164, -392.762942) "></path>
                        <path d="M183.622222,430.205609 L161.108491,407.649404 L167.92797,400.813229 L167.92797,400.822291 L170.356522,398.394066 C177.508112,391.972411 188.455814,392.176273 195.344473,399.016978 C195.36256,399.0351 195.380645,399.050955 195.403254,399.071342 C195.416819,399.082668 195.425861,399.096259 195.443948,399.109849 L212.194219,415.903553 L259.494688,368.516948 L279.007659,388.067321 L231.70945,435.449395 L247.686528,451.452567 L311.043203,387.969919 L330.682777,407.649404 L245.895974,492.598726 L183.622222,430.205609" id="path38" transform="translate(245.895634, 430.557837) scale(-1, 1) rotate(-180.000000) translate(-245.895634, -430.557837) "></path>
                        <path d="M71.5685801,452.895455 L39.7274647,452.890924 L39.7274647,439.789389 C40.258979,430.196547 48.1523382,422.572106 57.8421294,422.538129 C57.869485,422.533598 57.888928,422.533598 57.917188,422.526802 C57.9375353,422.526802 57.9657951,422.538129 57.9789079,422.533598 L81.6741327,422.533598 L81.6741327,355.510547 L109.266525,355.510547 L109.270821,422.529069 L131.85328,422.533598 L131.855088,332.745951 L159.631962,332.75048 L159.638067,452.886395 L71.5685801,452.895455" id="path40" transform="translate(99.682766, 392.820703) scale(-1, 1) rotate(-180.000000) translate(-99.682766, -392.820703) "></path>
                        <path d="M39.0872062,331.300796 L32.2650143,324.471417 L32.2756401,324.462357 L29.8434708,322.025072 C23.4530919,314.869513 23.6563379,303.892674 30.4837295,297.002136 C30.5031725,296.98175 30.5119896,296.959099 30.5253282,296.943242 C30.5411537,296.929651 30.5694138,296.920591 30.575518,296.904736 L47.3285024,280.122357 L0.0291631406,232.733487 L19.536481,213.174055 L66.846446,260.56972 L82.8167412,244.562018 L19.4480835,181.068045 L39.0872062,161.393091 L123.876045,246.346944 L61.6113362,308.737796 L39.0872062,331.300796" id="path42" transform="translate(61.952604, 246.346944) scale(-1, 1) rotate(-180.000000) translate(-61.952604, -246.346944) "></path>
                        <path d="M39.6655188,39.7780417 L159.576347,39.7780417 L159.580642,128.016338 L159.576347,159.913956 L149.934258,159.920751 L146.492868,159.913956 C136.922447,159.379384 129.318696,151.480862 129.282523,141.763437 C129.282523,141.736255 129.280715,141.720399 129.273706,141.700013 C129.273706,141.679627 129.282523,141.652445 129.280715,141.634324 L129.282523,117.895719 L62.3883732,117.886659 L62.3883732,90.2520236 L129.282523,90.2406978 L129.273706,67.6188041 L39.6630319,67.6097436 L39.6655188,39.7780417" id="path44" transform="translate(99.621837, 99.849397) scale(-1, 1) rotate(-180.000000) translate(-99.621837, -99.849397) "></path>
                        <path d="M308.092858,62.3886124 L330.596868,84.9538777 L323.789596,91.7787265 L321.368279,94.2024201 C314.221889,100.612749 303.259266,100.417948 296.370607,93.5727127 C296.35026,93.561387 296.338956,93.5477962 296.323131,93.52741 C296.307306,93.5138192 296.289219,93.5024936 296.273394,93.4821074 L279.520861,76.6974641 L232.220392,124.086333 L212.707421,104.535962 L260.00563,57.1425619 L244.035334,41.141655 L180.662834,104.628832 L161.021903,84.9516126 L245.810063,0.00229056023 L308.092858,62.3886124" id="path46" transform="translate(245.809385, 62.044312) scale(-1, 1) rotate(-180.000000) translate(-245.809385, -62.044312) "></path>
                        <path d="M420.144917,39.7100889 L451.988294,39.7100889 L451.997336,49.3776809 L451.988294,49.3731506 L451.992816,52.8070939 C451.466049,62.3954063 443.575855,70.028908 433.872498,70.0674152 C433.845368,70.0674152 433.827283,70.0764758 433.806936,70.0764758 C433.777544,70.0674152 433.761719,70.0764758 433.739112,70.0674152 L410.048182,70.0674152 L410.039139,137.088201 L382.452851,137.083671 L382.448329,70.0674152 L359.86067,70.0674152 L359.849365,159.861859 L332.075431,159.855064 L332.079952,39.712354 L420.144917,39.7100889" id="path48" transform="translate(392.036384, 99.785974) scale(-1, 1) rotate(-180.000000) translate(-392.036384, -99.785974) "></path>
                        <path d="M452.625839,161.313809 L459.451196,168.147719 L461.863471,170.564617 C468.266058,177.726971 468.067107,188.715135 461.234968,195.610204 C461.223663,195.623795 461.203316,195.648712 461.185231,195.662302 C461.173926,195.673627 461.155841,195.687218 461.140014,195.707604 L444.385221,212.492248 L491.690212,259.881117 L472.172722,279.436019 L424.869991,232.047149 L408.901956,248.043526 L472.265413,311.535235 L452.621317,331.212453 L367.841297,246.260866 L430.112787,183.870013 L452.625839,161.313809" id="path50" transform="translate(429.765755, 246.263131) scale(-1, 1) rotate(-180.000000) translate(-429.765755, -246.263131) "></path>
                        <path d="M332.165863,210.415122 L281.560102,210.415122 L281.560102,159.780317 L245.780673,195.632858 L210.044198,159.83015 L210.044198,210.52838 L159.507392,210.52838 L195.287953,246.378656 L159.551478,282.18363 L210.154978,282.18363 L210.154978,332.816171 L245.934407,296.963629 L281.670882,332.768604 L281.670882,282.079433 L332.21334,282.079433 L296.427127,246.224628 L332.165863,210.415122 Z M393.171306,307.374185 L306.921763,307.374185 L306.921763,393.845678 L245.934407,332.745953 L184.906356,393.89551 L184.906356,307.480647 L98.5903468,307.480647 L123.84055,282.18363 L159.576347,246.378656 L98.5435482,185.229097 L184.791055,185.229097 L184.791055,98.7462798 L245.780673,159.852801 L306.813244,98.7032422 L306.813244,185.115841 L393.130612,185.115841 L332.138733,246.224628 L393.171306,307.374185 Z" id="path52" transform="translate(245.857427, 246.299376) scale(-1, 1) rotate(-180.000000) translate(-245.857427, -246.299376) "></path>
                        <path d="M393.745548,307.029882 L307.333229,307.029882 L307.333229,393.659934 L246.237355,332.444685 L185.100785,393.707502 L185.100785,307.138609 L98.6195111,307.138609 L123.917418,281.791758 L159.724655,245.92336 L98.5727126,184.66281 L184.983224,184.66281 L184.983224,98.0169031 L246.081359,159.238946 L307.224711,97.9761307 L307.224711,184.545024 L393.704854,184.545024 L332.599936,245.767066 L393.745548,307.029882 Z M332.624806,209.891873 L281.926352,209.891873 L281.926352,159.168727 L246.081359,195.082427 L210.281582,159.21403 L210.281582,210.009661 L159.655023,210.009661 L195.500468,245.92336 L159.693682,281.791758 L210.3901,281.791758 L210.3901,332.514906 L246.237355,296.601205 L282.037132,332.469602 L282.037132,281.689827 L332.679065,281.689827 L296.825028,245.767066 L332.624806,209.891873 Z" id="path54" transform="translate(246.159130, 245.841816) scale(-1, 1) rotate(-180.000000) translate(-246.159130, -245.841816) "></path>
                    </g>
                </g>
            </g>
        </g>
    </g>
</svg>